<?xml version="1.0" encoding="UTF-8"?>

<svg xmlns="http://www.w3.org/2000/svg" viewBox="0 0 1750 515">
  <defs>
    <style>
      .cls-2 {
        fill: #fff;
      }
      .cls-3 {
        fill: #fff;
      }
    </style>
  </defs>
  <g>
    <path class="cls-2" d="m53.18,234.88c-1.72-.92-3.39-1.71-4.95-2.67-5.14-3.17-5.79-6.8-2.35-11.83,3.86-5.65,8.36-10.9,11.04-17.3.24-.58.48-1.15.74-1.72,2.29-4.93,2.41-9.2-2.1-13.38-4.18-3.88-7.32-8.83-10.33-13.71-4.61-7.48-3.43-10.24,4.95-12.49,9.78-2.62,19.3-5.77,27.81-11.54,8.91-6.04,16.09-13.72,22.21-22.49,3.65-5.22,6.87-10.69,9.73-16.4,1.02-2.04.74-3.23-.79-4.87-7.29-7.83-11.75-17.23-14.65-27.44-.06-.21.07-.48.21-1.28,3.06,4.63,5.47,9.19,8.48,13.36,2.98,4.14,6.34,7.9,10.19,12.29,1.61-3.63,2.96-6.62,4.27-9.63,5.3-12.24,10.56-24.49,17.01-36.19,4.89-8.88,10.72-17.07,17.01-25,5.98-7.53,12.59-14.49,18.83-21.78.31-.37.61-.81,1.42-.68-.08,2.62-1.24,4.98-1.95,7.45-3.91,13.69-6.93,27.57-9.35,41.61-3.89,22.66-5.11,45.42-3.51,68.33,1.54,22.11,6.49,43.41,15.83,63.58,4.1,8.85,9.35,17,15.08,24.9,13.05,17.98,24.84,36.76,35.05,56.51,9.07,17.54,16.69,35.67,22.13,54.68,5.77,20.19,8.9,40.77,7.91,61.79-1.36,29.11-10.45,55.61-28.66,78.49-8.48,10.66-18.51,19.9-30.97,26-2.58,1.26-5.28,2.26-8.18,2.47-3.88.27-5.05-1.21-3.88-4.94,1.71-5.47,3.62-10.87,5.09-16.42,5.04-18.91,5.88-37.89,1.72-57.1-3.62-16.73-10.91-31.57-22.37-44.21-12.94-14.27-28.81-23.87-47.35-29.31-15.65-4.6-31.46-8.62-47.11-13.19-8.95-2.61-17.94-5.26-26.46-9.13-4.99-2.26-9.78-4.88-14.02-8.48-3.94-3.35-5.22-7.36-4.36-12.36,1.58-9.23,6.28-16.71,12.62-23.33,2.24-2.34,4.57-4.61,6.16-7.49,2.07-3.75,1.96-5.55-.7-8.86-1.41-1.74-2.66-3.61-4.33-5.15-.81-.75-1.43-1.73-2.01-2.69-2.82-4.68-2.08-8.49,2.51-11.64,3.08-2.12,6.45-3.76,9.96-5.09.77-.29,1.79-.18,2.43-1.68Z"/>
    <path class="cls-2" d="m213.87,49.83c.5,2.37-.33,4.65-.49,6.96-1.11,16.7.22,33.2,3.98,49.49,5.31,23,14.5,44.51,25.18,65.45,13.39,26.26,29.33,50.98,45.2,75.75,9.14,14.27,18.5,28.42,27.05,43.04,10.94,18.71,21.52,37.66,28.31,58.42,3.55,10.84,5.96,21.88,6.62,33.3.91,15.75-3.27,30.16-11.45,43.44-7.59,12.32-18.12,21.87-29.83,30.07-22.03,15.44-46.49,25.87-71.88,34.31-4.14,1.37-8.24,2.83-12.36,4.27-.94.33-1.84.79-3.14.44.75-1.41,2.13-2.03,3.26-2.68,10.38-5.99,20.1-12.96,29.66-20.16,11.87-8.94,23.3-18.45,33.08-29.67,9.69-11.12,18.15-23.13,23.17-37.22,4.29-12.05,6.03-24.37,4.79-37.18-1.84-18.95-8.39-36.36-16.73-53.22-9.69-19.58-21.38-38-32.8-56.58-10.05-16.36-19.84-32.88-28.69-49.93-10.42-20.1-19.04-40.92-24.33-62.99-5.49-22.91-7.2-46.12-4.24-69.56,1.05-8.29,2.37-16.55,4.83-24.58.14-.46.17-.99.81-1.2Z"/>
    <path class="cls-2" d="m322.57,109.12c.06-7.19,1.91-13.88,4.44-20.39,8.57-22.08,23.82-38.17,44.23-49.76,10.79-6.13,22.13-10.74,34.12-13.81,1.18-.3,2.36-.81,3.65-.28.24,1.58-.96,2.54-1.66,3.59-5.26,7.91-7.48,16.75-8.41,26.05-.82,8.2-.77,16.46-2.01,24.63-1.75,11.44-7.14,20.51-16.82,27.09-9.98,6.78-21.24,10.17-32.71,13.15-5.91,1.53-11.91,2.65-17.94,3.56-.84.13-1.68.51-3.09-.23,6.49-13.64,13.6-27.01,20.12-40.71-8.41,8.66-15.98,17.98-23.93,27.11Z"/>
    <path class="cls-2" d="m341.56,261.1c-1.22-.09-1.87-1.09-2.57-1.87-10.8-12.07-19.61-25.38-25.59-40.55-5.78-14.66-8.35-29.74-7.01-45.45.91-10.65,4.07-20.67,8.9-30.31,2.09,11.59,2.54,23.36,5.08,34.92,1.85-7.16,2.05-14.55,3.06-21.81,1.04-7.4,1.71-14.85,2.52-22.12,1.29-.61,1.94.08,2.56.66,10.15,9.63,19.99,19.54,27.67,31.36,4.53,6.98,7.85,14.39,8.77,22.81.91,8.3-1.39,15.78-5.02,23.05-3.51,7.03-7.81,13.61-11.42,20.6-4.28,8.28-6.6,16.92-6.42,26.24.02.82.34,1.74-.52,2.48Z"/>
    <path class="cls-2" d="m234.2,16.99c6.39,1.95,11.74,4.22,16.95,6.82,13.59,6.78,26.18,15.07,36.47,26.31,15.44,16.84,24.16,36.71,25.15,59.74.01.24-.11.48-.35,1.48-7.18-10.05-12.98-20.47-20.7-29.57,4.91,14.2,10.47,28.1,15.55,42.72-4.81-.82-8.88-2.31-12.98-3.58-8.32-2.58-16.53-5.49-24.33-9.44-6.8-3.44-13.17-7.56-18.44-13.12-7.26-7.65-10-17.13-10.06-27.4-.05-7.48.54-14.97.71-22.46.18-8.05-.72-15.96-3.98-23.43-1.09-2.5-2.41-4.89-3.99-8.07Z"/>
    <path class="cls-2" d="m436.56,154.05c-4.84,2.83-9.44,4.31-14.06,5.66-9.37,2.75-18.92,4.23-28.73,3.89-13.05-.45-24.87-4.42-35.53-11.96-2.74-1.94-5.39-3.93-8.1-7.1,8.65,1.8,16.58,3.45,24.52,5.11.08-.25.16-.5.24-.76-9.44-4.3-18.79-8.77-28.01-13.44.04-.61.35-.98.8-1.23,9.46-5.34,19.24-10.02,29.93-12.24,7.04-1.46,14.13-1.44,20.81,2,4.98,2.56,8.76,6.53,12.33,10.7,4.05,4.73,7.89,9.64,13.05,13.28,3.69,2.6,7.76,4.41,12.76,6.09Z"/>
    <path class="cls-2" d="m323.52,75.82c-.6-4.12.09-8.11-1.14-12.01-2.17,5.3-2.55,11.07-4.32,16.72-2.6-1.14-3.62-3.54-5.05-5.42-3.53-4.65-7.16-9.23-8.96-14.98-1.75-5.58-1.49-10.8,1.74-15.75,1.09-1.67,2.17-3.35,3.38-4.94,3.65-4.81,6.61-9.92,7.01-16.43,11.76,11.3,18.82,38.57,7.34,52.8Z"/>
  </g>
  <g>
    <path class="cls-3" d="m1340.38,188.8h-100.8c-1.14,1.12-1.4,2.5-1.92,3.73-8.05,19.23-16.07,38.47-24.13,57.69-.58,1.38-1.18,2.78-2.02,4-2.35,3.42-5.67,5.09-9.85,4.68-4.28-.42-7.47-2.57-9.28-6.49-1.21-2.63-.9-5.33.15-7.95,1.83-4.55,3.61-9.12,5.56-13.62,25.42-58.78,50.87-117.55,76.32-176.31,1.52-3.5,3.06-6.99,4.66-10.46.74-1.6,1.5-3.23,2.51-4.68,4.27-6.15,13.22-6.02,17.33.24.89,1.36,1.6,2.86,2.25,4.35,9.01,20.75,18.02,41.49,26.98,62.26,9.34,21.64,18.64,43.3,27.95,64.96,8.45,19.65,16.91,39.3,25.35,58.96,1.72,4.01,3.39,8.03,5.03,12.07.87,2.15,1.71,4.33,1.62,6.7-.17,4.55-2.88,8.17-7.09,9.56-4.16,1.38-9-.04-11.88-3.49-1.24-1.49-2.03-3.23-2.78-4.99-3.6-8.39-7.22-16.77-10.77-25.18-4.5-10.67-8.94-21.37-13.41-32.05-.52-1.25-1.11-2.48-1.78-4Zm-49.86-117.07c-.74,0-.88-.02-1.01,0-.13.03-.24.12-.35.19-.11.07-.24.14-.32.24-.17.21-.34.44-.45.68-12.86,31.09-26,62.06-39.4,92.92-.05.11,0,.27.05.4.04.11.13.21.25.37.33.08.72.27,1.11.27,26.43-.05,52.87-.11,79.3-.17.12,0,.26-.1.36-.19.09-.08.12-.21.39-.71-13.24-31.17-26.58-62.59-39.93-94.01Z"/>
    <path class="cls-3" d="m1550.06,188.84c-.53,1.22-1.02,2.33-1.49,3.45-8.04,19.23-16.08,38.46-24.14,57.69-.63,1.5-1.29,3.04-2.21,4.36-2.37,3.41-5.72,5.02-9.9,4.56-4.28-.47-7.45-2.65-9.2-6.61-1.17-2.64-.8-5.34.26-7.96,1.85-4.54,3.62-9.12,5.57-13.62,25.37-58.65,50.76-117.3,76.16-175.94,2-4.62,4.11-9.21,6.28-13.76,1.42-2.97,3.71-4.97,7.03-5.76,4.29-1.03,8.7.48,11.15,4.14.98,1.47,1.75,3.09,2.45,4.71,11.04,25.51,22.05,51.03,33.06,76.55,11.06,25.65,22.12,51.3,33.16,76.96,6.14,14.27,12.23,28.55,18.31,42.85.75,1.75,1.46,3.54,1.93,5.38,1.31,5.11-.82,9.87-5.27,12.08-4.48,2.23-10.12.96-13.36-3.02-1.31-1.61-2.1-3.5-2.9-5.38-5.14-12.03-10.31-24.05-15.41-36.09-2.87-6.77-5.63-13.59-8.46-20.39-.57-1.37-1.21-2.72-1.79-4.01-3.37-.5-92.97-.69-101.21-.21Zm9.47-22.42c.88.21,1.27.39,1.66.39,26.43-.05,52.87-.11,79.3-.18.12,0,.26-.1.36-.19.09-.08.12-.22.28-.54-.07-1.35-.9-2.64-1.48-3.99-6.18-14.55-12.4-29.07-18.56-43.63-6.11-14.43-12.14-28.88-18.26-43.31-.5-1.18-.61-2.7-2.22-3.35-.84.21-1.29.81-1.6,1.61-.84,2.16-1.66,4.32-2.57,6.46-10.53,24.83-21.07,49.66-31.62,74.49-1.7,3.99-3.45,7.96-5.3,12.24Z"/>
    <path class="cls-3" d="m1046.68,143.18c5.31-4.79,9.88-8.88,14.41-13.02,25.03-22.86,50.05-45.74,75.07-68.61,7.77-7.1,15.57-14.17,23.34-21.26,1.84-1.68,3.85-2.85,6.36-3.5,5.8-1.51,13.66,4.75,13.18,11.26-.17,2.29-.9,4.17-2.67,5.73-22.73,20.11-44.87,40.86-67.33,61.27-3.83,3.48-7.73,6.9-11.62,10.37.1,1.75,1.26,2.82,2.07,4.02,11.09,16.55,22.25,33.05,33.32,49.61,13.34,19.97,26.61,39.98,39.9,59.99,1.05,1.59,2.12,3.2,2.9,4.93,2.4,5.27.41,10.4-4.78,13.59-4.33,2.66-10.59,1.64-13.5-2.72-.91-1.36-1.82-2.72-2.73-4.08-22.03-32.87-44.06-65.74-66.09-98.62-1.98-2.95-3.95-5.89-5.94-8.83-.53-.78-.93-1.69-2.19-2.09-1.82,1.65-3.79,3.34-5.65,5.13-7.78,7.5-15.75,14.77-23.88,21.88-.51.45-.98.96-1.53,1.36-2.17,1.57-2.91,3.59-2.89,6.32.15,21.14.15,42.27.19,63.41,0,3.14.08,6.28-.1,9.41-.29,5.13-4.6,9.65-9.58,10.27-5.97.73-11.41-3.64-11.99-9.68-.14-1.49-.21-2.99-.21-4.49,0-64.23,0-128.46,0-192.69,0-2.45,0-4.92.25-7.35.54-5.29,5.12-9.57,10.41-9.91,4.94-.32,10.45,4.48,11.05,9.71.18,1.62.14,3.27.14,4.9.02,23.18.02,46.37.04,69.55,0,7.23.05,14.45.07,21.68,0,.5,0,1,0,2.46Z"/>
    <path class="cls-3" d="m918.81,33.3c4.1.39,8.2.4,12.27,1.16,12.41,2.32,23.97,6.58,34.08,14.3,5.72,4.36,10.43,9.64,14.29,15.67,2.67,4.17,2.67,7.49.06,10.98-2.57,3.43-7.76,5.16-11.77,3.9-1.63-.51-2.85-1.57-3.97-2.81-1.56-1.72-3.1-3.46-4.73-5.11-8.87-9-19.62-14.12-32.19-15.63-11.64-1.4-22.95-.49-33.82,4.15-7.2,3.07-13.31,7.51-17.88,13.92-5.88,8.24-7.03,17.33-4.41,26.88,1.44,5.25,4.81,9.44,9.08,12.85,5.18,4.13,10.99,7.12,17.15,9.51,5.74,2.23,11.65,3.95,17.6,5.53,14.18,3.75,28.03,8.42,41.08,15.14,7.56,3.89,14.7,8.44,20.71,14.57,9.02,9.21,13.84,20.29,14.08,33.06.5,26.65-11.72,46.15-34.67,59.26-8.64,4.94-18.06,7.71-27.91,9.15-3.53.52-7.06.91-10.63.91-19.79-.04-37.75-5.8-53.7-17.43-8.27-6.04-14.98-13.55-19.73-22.69-1.13-2.18-2.1-4.43-2.34-6.93-.39-4.19,2.39-8.68,6.74-10.76,3.74-1.79,8.23-.94,11.24,2.33,1.19,1.29,2.18,2.81,3.04,4.34,9.08,16.19,23.44,24.77,41.27,28.04,13.21,2.42,26.22,1.5,38.59-4.14,9.05-4.12,16.61-10.08,21.43-18.94,4.97-9.13,6.11-18.85,3.63-28.93-1.41-5.73-4.55-10.44-8.95-14.37-5.16-4.61-11.06-8.01-17.4-10.68-10.85-4.56-22.01-8.22-33.38-11.28-13.15-3.54-25.71-8.42-37.05-16.12-9.66-6.57-17.06-14.93-20.67-26.18-5.17-16.07-2.21-31,7.06-44.77,6.66-9.88,15.92-16.81,26.71-21.72,9.05-4.11,18.57-6.5,28.5-7.14,2.18-.14,4.38-.02,6.57-.02Z"/>
    <path class="cls-3" d="m706.15,162.46c0,2.53,0,4.56,0,6.58.01,25.5.03,51,.04,76.5,0,1.09.03,2.19-.06,3.27-.38,4.94-4.45,9.36-9.28,10.14-4.7.76-9.59-2.04-11.64-6.58-.76-1.68-.79-3.45-.88-5.2-.1-2.04,0-4.09,0-6.13,0-63,0-126,0-189,0-2.18.01-4.37.17-6.54.41-5.54,3.6-9.08,9-10.13,2.02-.39,4.05-.61,6.12-.61,17.26.02,34.52-.03,51.78.03,11.63.04,22.92,1.9,33.38,7.25,20.05,10.26,31.77,26.44,35,48.77,4.24,29.29-13.64,61.7-49.98,69.85-5.76,1.29-11.6,1.85-17.52,1.83-13.83-.05-27.67-.02-41.5-.02-1.35,0-2.71,0-4.64,0Zm.13-22.32c.67.24.93.42,1.19.42,16.16-.02,32.33-.04,48.49-.09,3.85-.01,7.58-.66,11.33-1.66,18-4.8,31.9-21.95,31.16-41.66-.47-12.55-5.51-22.92-15.3-30.87-8.53-6.93-18.56-9.78-29.37-9.92-14.79-.2-29.59-.1-44.38-.12-.94,0-1.93-.23-3.22.77.11,27.41-.04,55.17.11,83.13Z"/>
    <path class="cls-3" d="m1444.56,136.94c3.49-5.12,6.64-9.72,9.76-14.34,17.03-25.22,34.05-50.45,51.07-75.68,1.37-2.04,2.64-4.15,4.03-6.16,2.49-3.59,5.92-5.2,10.28-4.43,4.27.76,8.54,4.91,9.27,8.89.4,2.21.05,4.37-1.04,6.34-1.19,2.14-2.4,4.29-3.78,6.32-13.99,20.52-28.01,41.02-42.03,61.53-8.16,11.94-16.29,23.91-24.51,35.81-1.3,1.88-1.88,3.74-1.88,6.04.07,27.68.05,55.37.05,83.05,0,1.91.03,3.81-.39,5.7-1.21,5.43-5.94,9.31-11.1,9.01-5.46-.31-10.04-4.73-10.52-10.23-.14-1.63-.12-3.27-.12-4.91.02-27.55.03-55.1.14-82.64,0-2.21-.65-3.93-1.84-5.65-9.96-14.35-19.89-28.72-29.84-43.08-12.9-18.63-25.8-37.25-38.68-55.88-1.01-1.46-2.03-2.93-2.82-4.5-2.73-5.42-.92-11.07,4.54-14.41,4.89-3,10.46-1.75,13.96,3.32,4.34,6.29,8.51,12.69,12.82,19.01,16.22,23.79,32.46,47.57,48.7,71.35,1.14,1.68,2.34,3.31,3.92,5.54Z"/>
    <path class="cls-3" d="m494.58,236.82c.83.56,1.82.27,2.75.27,26.31.08,52.62.14,78.93.22,1.51,0,3.01.1,4.52.12,4.7.08,10.19,4.87,10.14,10.98-.05,5.48-4.72,10.18-10.54,10.59-.95.07-1.92.04-2.88.04-30.56,0-61.11,0-91.67,0-1.23,0-2.47.02-3.69-.13-5.45-.67-9.23-4.5-9.8-9.89-.11-1.08-.16-2.18-.16-3.26,0-64.25.01-128.5.04-192.75,0-2.59,0-5.19.22-7.77.48-5.5,4.55-9.79,10.01-10.25,4.17-.36,7.36,1.76,9.72,5.06,1.2,1.69,1.86,3.62,1.85,5.75,0,3,.08,6,.08,9,0,55.52,0,111.04,0,166.56,0,4.5.03,9,.05,13.5,0,.67-.14,1.37.44,1.96Z"/>
    <path class="cls-3" d="m638.77,147.19c0,32.73,0,65.45,0,98.18,0,1.36.05,2.74-.12,4.09-.67,5.61-6.3,10.08-11.91,9.57-5.13-.47-9.46-5.23-9.63-9.2-.06-1.36-.23-2.72-.23-4.08,0-64.36,0-128.72.03-193.09,0-2.45,0-4.92.2-7.36.49-6.07,5.29-10.41,11.19-10.25,5.51.14,10.14,4.86,10.38,10.7.13,3,.11,6,.11,9,0,30.82,0,61.64,0,92.45h-.03Z"/>
  </g>
  <g>
    <path class="cls-3" d="m1126.42,428.55c-.88,1.26-.55,2.5-.55,3.66-.03,12.07-.01,24.14-.01,36.21,0,5.16,0,10.32-.02,15.47,0,.88.02,1.76-.08,2.63-.19,1.65-1.04,2.73-2.66,2.91-3.18.34-6.39.45-9.57.04-1.49-.19-2.22-1.14-2.37-2.73-.13-1.42-.16-2.85-.16-4.27,0-40.38,0-80.77.02-121.15,0-1.65,0-3.3.11-4.93.17-2.29.75-2.98,2.91-3.29,2.85-.41,5.72-.43,8.57,0,2.03.3,2.93,1.19,3.1,3.23.16,1.96.04,3.95.09,5.92.02.95-.26,2.01.71,2.67.7.22,1.06-.21,1.44-.6,1.85-1.88,3.71-3.75,5.85-5.33,12.87-9.5,26.62-10.62,41.17-4.37,2.01.86,3.74,2.28,6,2.66.69.12,1.31.78,1.93,1.24,7.51,5.53,12.66,12.84,15.51,21.6,3.81,11.72,3.82,23.53-.45,35.18-2.73,7.46-7.22,13.77-13.39,18.84-1.6,1.32-3.24,2.54-5.39,3.04-1.36.31-2.56,1.25-3.85,1.85-9.72,4.52-19.7,5.12-29.91,1.88-6.03-1.91-10.97-5.5-15.38-9.92-.98-.98-1.75-2.31-3.61-2.45Zm52.88-50.98c-6.9-9.92-16.12-14.34-27.76-12.8-13.02,1.72-20.38,10.02-24.12,22.03-.35-.18-.22-.8-.9-.83-2.07,5.82-1.59,11.85-1.18,17.85.15,2.21.49,2.72,1.49,3.96.22-.23.44-.46.66-.69.85,3.54,2.29,6.93,4.29,9.78,6.28,8.96,15.01,12.84,25.87,12.29,8.88-.45,15.75-4.49,20.71-11.72.72-1.04,1.55-1.33,2.65-1.49,6.34-12.78,6.55-25.48-.08-38.18-.59-.07-1.13-.14-1.63-.2Z"/>
    <path class="cls-3" d="m611.11,381.99c-4.98,12.51-10.1,24.95-15.69,37.45-1.19.03-1.72,1.05-2.19,2.22-1.83,4.58-3.69,9.15-5.6,13.69-.64,1.51-1.32,3.04-2.23,4.39-1.66,2.46-3.88,2.39-5.53-.07-.55-.82-.97-1.72-1.39-2.61-10.45-22.6-20.9-45.19-31.32-67.8-1.56-3.38-2.98-6.81-4.39-10.06-.63-.4-1.21.3-1.74-.47-.45-1.17-.61-2.54-.28-3.9,4.49-2.05,9.13-1.63,13.73-1.58,1.47.02,2.5.76,3.16,2.02.36.68.69,1.37,1,2.07,7.02,16.08,14.03,32.16,21.04,48.24.7,1.61,1.36,3.23,2.05,4.84.17.39.31.83,1.1.97.7-.5.89-1.47,1.25-2.33,3.37-8.2,6.73-16.4,10.11-24.65h1.4c2.26-5.66,4.5-11.37,6.83-17.04,1.66-4.06,3.4-8.08,5.17-12.1.48-1.1,1.06-2.19,1.8-3.12,1.27-1.62,3.26-1.55,4.44.15.74,1.07,1.29,2.29,1.8,3.5,2.34,5.56,4.64,11.13,6.93,16.7,3.8,9.22,7.58,18.45,11.36,27.68,1.33,3.25,2.62,6.51,3.96,9.75.2.48.26,1.08.86,1.34.08.01.2.06.3.04.09-.02.19-.1.23-.18,2.61-5.91,5.21-11.83,7.91-17.96.27-.31.89.11,1.4-.14.16-.26.37-.52.49-.82,4.94-12.2,10.5-24.12,15.79-36.17.26-.6.6-1.17.91-1.75.62-1.15,1.55-1.78,2.88-1.93,3.42-.4,6.83-.4,10.21.19,2.47.43,3.18,1.62,2.43,3.97-.46,1.46-1.05,2.89-1.69,4.28-8.13,17.62-16.28,35.24-24.44,52.85-1.89,4.08-3.86,8.12-5.8,12.18-.42.87-.72,1.81-1.93,1.96-.63.08-.68.78-.9,1.27-.89,2.01-1.75,4.02-2.68,6.01-.75,1.58-1.45,3.22-2.42,4.67-1.72,2.59-3.8,2.56-5.44,0-.76-1.19-1.34-2.52-1.88-3.83-3.75-9.01-7.49-18.02-11.21-27.04-3.34-8.11-6.63-16.24-10-24.33-.36-.85-.39-1.99-1.76-2.52Z"/>
    <path class="cls-3" d="m1383.08,428.69c-1.63.84-2.34,1.84-3.19,2.68-10.26,10.31-22.52,13.59-36.65,10.35-3.43-.79-6.87-1.44-10.08-3.03-9.31-4.63-15.79-12-19.74-21.33-5.98-14.1-6.07-28.46.4-42.46,4.37-9.45,11.22-16.78,21.14-20.76,4.2-1.69,8.69-2.33,13.15-3.05,5.23-.84,10.33-.21,15.37,1.15,6.68,1.8,12.09,5.69,16.91,10.5.75.74,1.31,1.72,2.71,2.34.01-1.64.02-3,.03-4.36.02-1.53-.06-3.08.08-4.6.17-1.93.92-2.73,2.88-2.99,3.51-.46,7.03-.41,10.55-.01,1.5.17,2.33,1.05,2.73,2.47.4,1.41.32,2.83.32,4.25,0,20.63,0,41.26,0,61.89,0,4.06,0,8.12,0,12.18,0,.88.03,1.76-.09,2.63-.34,2.59-1.23,3.55-3.8,3.67-2.97.13-5.96.12-8.93,0-2.59-.11-3.52-1.08-3.73-3.66-.12-1.42-.06-2.85-.07-4.27,0-1.06,0-2.12,0-3.58Zm.96-31.89c.08-3.95-.4-7.75-1.5-11.45-6.16-20.79-27.04-24.28-39.73-18.36-1.65.77-3.02,2.19-5.07,2.14-.44-.01-.91.56-1.33.91-3.42,2.84-6.24,6.15-8.18,10.18-3.81,7.9-4.65,16.17-2.98,24.68,1.18,6.03,3.81,11.42,8.16,15.86,1.83,1.86,3.58,3.89,6.45,4.26.5.06.94.54,1.42.81,6.57,3.71,13.6,4.25,20.78,2.59,8.47-1.95,14.46-7.16,18.29-14.85,2.64-5.3,3.74-10.96,3.68-16.77Z"/>
    <path class="cls-3" d="m1016.64,399.79c-.07,3.88.92,7.57,1.97,11.25.24.86,1,.68,1.7.8.33.75.66,1.56,1.05,2.34,4.47,8.97,11.62,14.08,21.72,14.94,11.38.97,20.13-3.44,26.49-12.78.43-.64.85-1.28,1.3-1.9,1.6-2.16,3.33-2.86,5.71-1.83,2.51,1.09,4.94,2.42,7.26,3.88,2.06,1.3,2.27,2.36,1.11,4.43-2.44,4.35-5.65,8.09-9.37,11.41-3.99,1.59-7.07,4.7-11.01,6.39-3.96,1.7-8.02,3-12.3,3.66-9.55,1.46-18.64.1-27.28-4.23-1.95-.98-3.74-2.21-5.88-2.9-1.63-.53-2.91-1.94-4.16-3.18-5.64-5.59-9.88-12.04-12.03-19.73-3.55-12.7-2.91-25.18,2.38-37.3,2.67-6.13,6.74-11.29,11.96-15.51.85-.69,1.67-1.41,2.86-1.52,1.03-.09,1.74-.9,2.6-1.37,13.02-7.11,26.35-7.86,39.99-1.86,3.25,1.43,6.12,3.45,8.77,5.81.87.77,1.58,1.85,3.04,1.72.74-.06,1.07.69,1.49,1.17,7.99,8.94,11.37,19.6,11.72,31.37.02.65-.08,1.31-.16,1.96-.11.96-.68,1.57-1.54,1.97-.81.38-1.67.56-2.56.6-1.21.05-2.42.08-3.63.08-19.84,0-39.68,0-59.52.02-1.18,0-2.41-.28-3.66.32Zm53.63-13.05c.3-1.63-.34-2.97-.81-4.28-3.67-10.07-10.44-16.77-21.43-17.97-11.55-1.26-20.28,3.5-26.13,13.5-.83,1.43-1.02,3.37-2.99,3.97-.13.04-.22.36-.26.56-.3,1.36-1.08,2.64-.76,4.22h52.4Z"/>
    <path class="cls-3" d="m812.94,399.45c-.24,11.38,6.03,25.78,20.87,29.06,9.09,2.01,17.51.46,24.83-5.61.82-.68,1.43-1.62,2.77-1.55.46.02,1.02-.74,1.42-1.24,1.16-1.46,2.26-2.97,3.37-4.47.52-.7,1.02-1.43,1.56-2.12.93-1.18,2.17-1.57,3.53-.99,2.63,1.12,5.22,2.37,7.54,4.05,1.91,1.38,2.11,2.35.87,4.51-2.31,4.03-5.27,7.56-8.69,10.7-1.79,1.64-3.69,3.14-5.76,4.41-1.58.97-3.19,1.76-5.05,2.27-2.63.72-5.08,2.08-7.75,2.77-13.16,3.42-25.55,1.85-36.97-5.74-1.82-1.21-3.44-2.73-5.13-4.14-.75-.63-1.3-1.47-2.4-1.63-.84-.12-1.18-.92-1.67-1.49-5.28-6.17-8.33-13.36-9.78-21.27-1.91-10.39-.84-20.5,2.92-30.37,1.71-4.49,4.54-8.24,7.35-12.04.13-.17.25-.46.41-.48,2.64-.39,3.85-2.73,5.68-4.18,6.02-4.77,12.86-7.5,20.41-8.67,8.54-1.32,16.66.09,24.46,3.65.2.09.39.2.6.27,11.02,4,17.17,12.54,21.22,22.89,2.06,5.24,2.81,10.8,3.01,16.42.01.33.02.66,0,.99-.14,2.59-.91,3.48-3.56,3.83-1.3.17-2.64.16-3.96.16-19.51,0-39.02,0-58.53,0-1.19,0-2.39,0-3.57,0Zm53.5-12.72c.03-.4.12-.73.07-1.02-.68-3.6-2.21-6.85-4.05-9.99-.24-.41-.53-.85-.95-.79-1.33.2-1.62-.9-2.23-1.6-6.72-7.81-15.3-10.54-25.21-8.42-9.84,2.1-16.15,8.43-19.34,17.87-.41,1.23-.97,2.45-.71,3.95h52.42Z"/>
    <path class="cls-3" d="m708.12,399.96c.93,11.27,4.54,21.26,15.64,26.53,9.73,4.62,19.45,3.9,28.55-2.2,1.06-.71,1.89-1.79,3.4-1.84.52-.02,1.05-.73,1.51-1.19,1.46-1.5,2.77-3.12,3.93-4.87.61-.91,1.21-1.84,1.9-2.69,1.25-1.52,2.33-1.87,4.06-1.03,2.38,1.14,4.73,2.37,6.95,3.78,2.16,1.38,2.39,2.48,1.06,4.71-4.33,7.22-9.93,13.39-17.68,16.8-9.69,4.27-19.93,6.44-30.61,4.17-9.79-2.07-18.21-6.47-24.31-14.65-.32-.43-.5-1.13-1.12-1.09-1.57.1-1.99-1.15-2.65-2.1-3.63-5.24-5.66-11.13-6.8-17.33-2.01-10.86-.82-21.4,3.44-31.59.94-2.24,2.06-4.37,3.53-6.3.62-.81.88-2.11,2.43-1.79.23.05.65-.53.9-.88,6.73-9.16,16.1-13.63,27.12-15.25,7.75-1.14,15.13.16,22.31,3.05.92.37,1.79.94,2.74,1.11,2.27.4,4.06,1.65,5.83,2.96,8.29,6.12,13.59,14.23,16.1,24.17.97,3.84,1.48,7.75,1.63,11.71.03.66.03,1.32-.04,1.97-.2,1.82-.77,2.51-2.54,2.99-1.51.41-3.06.34-4.6.34-16.1,0-32.2,0-48.3,0-3.97,0-7.94-.01-11.91,0-.75,0-1.55-.2-2.46.5Zm1.1-13.2h52.52c.44-.75.18-1.4.02-2-.72-2.77-1.72-5.44-3.24-7.87-1.02-1.63-1.78-3.55-4.05-4.02-.45-.09-.81-.71-1.18-1.11-9.2-9.81-26.5-10.34-36.74.29-3.92,4.06-6.34,8.85-7.33,14.72Z"/>
    <path class="cls-3" d="m1605.51,374.65c1.9,4.1,3.51,8.04,4.41,12.25,2.26,10.56,1.03,20.7-3.67,30.42-.38.78-.5,1.79-1.87,1.87-.87.05-1.06,1.29-1.51,2.01-5.26,8.35-12.45,14.47-21.63,18.11-8.11,3.21-16.5,4.36-25.26,3.04-5.73-.86-11.24-2.19-16.28-5.03-11.73-6.6-19.36-16.46-22.6-29.44-3.59-14.39-.96-27.74,8.41-39.35,7.33-9.09,16.7-15.17,28.62-16.7,1.31-.17,2.61-.42,3.91-.65,12.6-2.21,30.71,3.63,40.03,15.13,1.94,2.39,4,4.69,5.47,7.4.44.82,1.06.97,1.98.92Zm-42.38,54.61c.99-.05,1.98-.07,2.97-.15,11.09-.9,19.44-6.17,24.47-16.03,5.06-9.94,5.12-20.31.97-30.58-2.73-6.75-7.55-11.77-14.21-14.94-5.83-2.78-12-3.65-18.36-2.8-3.25.43-6.54,1.1-9.62,2.2-4.88,1.75-8.77,5.02-11.8,9.2-5.41,7.46-7.2,15.88-6.41,24.92.47,5.34,2.2,10.27,5.14,14.76,3.28,5.01,7.66,8.9,13.27,10.95,4.31,1.57,8.87,2.61,13.58,2.47Z"/>
    <path class="cls-3" d="m1648.63,363.49c1.7-1.71,2.83-2.87,3.99-3.99,1.81-1.74,3.53-3.61,6.17-4.17.51-.11.96-.51,1.44-.78,5.76-3.24,11.92-4.27,18.48-3.58,5.5.58,10.43,2.45,15.07,5.4,5.88,3.74,8.93,9.24,10.4,15.78.82,3.64,1.26,7.35,1.27,11.09.04,17.12.06,34.24.08,51.36,0,.22,0,.44,0,.66-.1,3.8-1.13,4.89-4.94,5.01-2.09.06-4.19.06-6.28-.1-2.35-.18-3.1-.91-3.5-3.18-.19-1.07-.25-2.18-.25-3.27.02-15.8.07-31.6.08-47.4,0-2.85-.16-5.7-.65-8.52-1.17-6.67-5.29-11.64-13.39-13.13-3.91-.72-7.91-.62-11.81.45-1.6.44-3.12,1.06-4.52,1.96-.91.59-1.73,1.33-2.94,1.37-.84.03-1.23.85-1.74,1.41-3.23,3.53-4.74,7.85-5.63,12.43-1.07,5.52-1.25,11.13-1.3,16.71-.12,11.63-.03,23.26-.02,34.9,0,.33,0,.66,0,.99,0,4.3-.93,5.3-5.14,5.4-1.87.05-3.75.06-5.62-.06-2.79-.18-3.72-1.11-3.95-3.82-.1-1.2-.13-2.41-.13-3.62,0-23.92,0-47.85.02-71.77,0-1.54,0-3.08.11-4.6.17-2.29.75-3,2.9-3.3,2.96-.42,5.94-.44,8.9,0,1.96.3,2.74,1.06,2.86,3.01.14,2.18.03,4.38.03,7.37Z"/>
    <path class="cls-3" d="m500.33,442.81c-2.12.1-4.19-.19-6.24-.63-4.75-1.01-9.39-2.22-13.41-5.18-4.35-3.2-7.74-7.13-10.07-11.98-.28-.59-.51-1.21-.71-1.83-.44-1.31-.09-2.41,1.09-3.14,2.83-1.75,5.93-2.87,9.1-3.8,1.11-.33,1.89.34,2.48,1.22.85,1.28,1.66,2.59,2.53,3.85.69.99,1.44,1.94,2.18,2.9.2.26.45.67.68.67,2.53-.01,3.9,2.22,6.03,3.02,4.76,1.79,9.47,2.01,14.07-.29,6.06-3.03,8.8-10.16,6.53-16.52-.69-1.92-1.83-3.48-3.36-4.79-1.68-1.45-3.6-2.53-5.6-3.46-4.78-2.24-9.52-4.58-14.39-6.59-2.65-1.1-5.31-2.11-7.62-3.83-1.23-.92-2.46-1.86-3.59-2.9-3.46-3.2-5.34-7.14-5.61-11.88-.51-8.84,2.43-16.13,9.53-21.62,1.66-1.29,3.51-2.19,5.56-2.8,3.27-.96,6.52-1.96,9.93-2.37,8.72-1.04,19.29,4.31,23.47,11.95.26.48.53.97.68,1.49.37,1.27.14,2.43-.98,3.23-2.33,1.68-4.86,3.02-7.51,4.1-1.21.49-2.36.26-3.28-.82-.78-.92-1.63-1.79-2.49-2.64-1.76-1.75-3.9-2.83-6.29-3.44-5.16-1.32-10.69,1.49-12.7,6.42-1.25,3.08-.49,6.72,1.96,9.1,1.35,1.31,2.94,2.3,4.62,3.14,3.54,1.78,7.16,3.36,10.85,4.83,4.31,1.71,8.45,3.71,12.21,6.48,5.15,3.79,8.98,8.54,10.05,14.92,2.04,12.19-3.19,22.63-12.73,28.57-5.19,3.23-10.92,4.56-16.98,4.61Z"/>
    <path class="cls-3" d="m1284.68,363.43c0,23.38,0,46.75,0,70.13,0,1.21.03,2.42-.11,3.62-.18,1.59-1.15,2.66-2.74,2.88-2.96.41-5.95.39-8.91.04-1.8-.21-2.7-1.24-2.91-3.06-.15-1.3-.18-2.63-.18-3.94,0-44.67.01-89.33.02-134,0-2.85-.06-5.71.06-8.56.11-2.81,1-3.67,3.87-3.79,2.31-.1,4.64-.1,6.94.04,2.78.16,3.73,1.18,3.9,3.88.07,1.2.05,2.41.05,3.62,0,23.05,0,46.09,0,69.14h0Z"/>
    <path class="cls-3" d="m905.9,367.2c-1.81,0-3.44.07-5.06-.02-3.04-.16-3.86-1.01-3.99-4.04-.07-1.64-.09-3.29-.05-4.94.07-3.52.89-4.43,4.46-4.76,1.42-.13,2.85-.02,4-.02,1.05-.79.74-1.62.74-2.34.02-7.9,0-15.81.02-23.71,0-4.59.79-5.35,5.39-5.41,1.87-.02,3.75-.03,5.62,0,4.39.07,5.08.76,5.29,5.22.06,1.31.05,2.63.05,3.95-.03,6.59-.07,13.17-.11,19.76,0,.66,0,1.31,0,1.89.66.78,1.47.54,2.2.55,2.09.03,4.19,0,6.29.02.77,0,1.55,0,2.31.08,3.93.44,4.69,1.29,4.72,5.21.01,1.65.06,3.29-.01,4.94-.1,2.34-1.05,3.39-3.44,3.57-2.08.16-4.19.11-6.28.13-1.75.02-3.5,0-5.11,0-.85,1.22-.55,2.34-.55,3.41-.02,20.63,0,41.27,0,61.9,0,1.31,0,2.64-.15,3.94-.3,2.6-1.13,3.42-3.79,3.65-1.75.15-3.53.1-5.29.1-1.32,0-2.65.01-3.96-.15-1.86-.23-2.77-1.11-3.02-2.93-.17-1.19-.14-2.41-.14-3.61,0-20.85,0-41.71-.01-62.56,0-1.18-.07-2.36-.11-3.83Z"/>
    <path class="cls-3" d="m1443.76,353.34c3.35,0,6.43.01,9.5,0,1.44,0,2.86.05,4.27.38,2.07.49,2.93,1.3,3.02,3.31.11,2.3.1,4.61,0,6.91-.08,1.94-1.09,2.98-3.12,3.18-1.86.18-3.74.15-5.62.16-2.51.02-5.03,0-7.53,0-.65,1.51-.42,2.84-.42,4.12-.02,20.41,0,40.82-.01,61.23,0,1.53-.12,3.07-.25,4.59-.14,1.66-1.21,2.61-2.76,2.82-3.07.41-6.16.37-9.24.02-1.47-.17-2.38-1.19-2.6-2.61-.18-1.18-.18-2.4-.18-3.61,0-20.85,0-41.7,0-62.55,0-1.2,0-2.41,0-3.46-.68-.93-1.51-.58-2.24-.6-1.21-.05-2.43.01-3.63-.11-2.24-.23-3.12-1.1-3.25-3.38-.12-2.19-.14-4.39-.03-6.58.11-2.31.89-3.01,3.14-3.55,1.85-.44,3.74-.12,5.53-.38.74-.66.48-1.47.48-2.21.02-7.9,0-15.8.02-23.7.01-4.58.76-5.31,5.42-5.37,1.87-.02,3.75-.06,5.62.07,2.8.19,3.48.86,3.79,3.56.14,1.2.18,2.41.18,3.61-.01,6.91-.05,13.83-.08,20.74,0,.98,0,1.97,0,3.41Z"/>
    <path class="cls-3" d="m1240.98,396.28c0,12.83-.08,25.65.04,38.48.05,4.87-1.81,5.55-5.38,5.53-2.31-.01-4.63.05-6.94-.1-2.58-.17-3.51-1.15-3.74-3.66-.11-1.2-.14-2.41-.14-3.61,0-24.56,0-49.11,0-73.67,0-1.2.08-2.41.11-3.61.03-1.56.96-2.4,2.33-2.81.62-.18,1.3-.23,1.96-.24,2.53-.03,5.07-.09,7.6.01,3.22.13,4.1,1.04,4.13,4.22.04,4.17,0,8.33-.01,12.5,0,8.99,0,17.98,0,26.97h.02Z"/>
    <path class="cls-3" d="m1491.14,396.33c0,12.83,0,25.65,0,38.48,0,4.43-.92,5.39-5.39,5.47-1.87.03-3.75.05-5.61-.09-2.55-.2-3.47-1.17-3.69-3.71-.11-1.2-.14-2.41-.14-3.61,0-24.45,0-48.89,0-73.34,0-1.2,0-2.42.1-3.61.18-2.09.95-2.9,3.04-3.22.87-.13,1.76-.13,2.64-.13,1.87,0,3.75-.06,5.61.1,2.44.2,3.28,1.16,3.42,3.56.04.66.01,1.32.01,1.97,0,12.72,0,25.43,0,38.15,0,0,0,0,.01,0Z"/>
    <path class="cls-3" d="m1244.41,319.65c-.15,3.9-1.87,6.92-5.24,8.92-4.8,2.85-11.22,1.89-14.78-2.14-4.05-4.57-3.43-11.37,1.38-15.14,5.57-4.37,12.99-3.41,16.82,2.16,1.29,1.87,1.92,3.92,1.82,6.2Z"/>
    <path class="cls-3" d="m1494.55,319.28c.27,5.29-4.06,10.65-10.52,10.83-5.83.17-10.71-4.72-10.82-10.55-.12-6.48,5.72-10.81,10.96-10.94,5.53-.14,10.33,4.93,10.38,10.66Z"/>
  </g>

</svg>








